0
SECTION
2
HEADER
9
$INSUNITS
70
4
9
$ACADVER
1
AC1014
9
$HANDSEED
5
FFFF
0
ENDSEC
0
SECTION
2
TABLES
0
TABLE
2
VPORT
5
8
100
AcDbSymbolTable
0
ENDTAB
0
TABLE
2
LTYPE
5
5
100
AcDbSymbolTable
0
LTYPE
5
14
100
AcDbSymbolTableRecord
100
AcDbLinetypeTableRecord
2
BYBLOCK
70
0
0
LTYPE
5
15
100
AcDbSymbolTableRecord
100
AcDbLinetypeTableRecord
2
BYLAYER
70
0
0
ENDTAB
0
TABLE
2
LAYER
5
2
100
AcDbSymbolTable
70
2
0
LAYER
5
50
100
AcDbSymbolTableRecord
100
AcDbLayerTableRecord
2
0
70
0
6
CONTINUOUS
0
ENDTAB
0
TABLE
2
STYLE
5
3
100
AcDbSymbolTable
70
1
0
STYLE
5
11
100
AcDbSymbolTableRecord
100
AcDbTextStyleTableRecord
2
STANDARD
70
0
0
ENDTAB
0
TABLE
2
VIEW
5
6
100
AcDbSymbolTable
70
0
0
ENDTAB
0
TABLE
2
UCS
5
7
100
AcDbSymbolTable
70
0
0
ENDTAB
0
TABLE
2
APPID
5
9
100
AcDbSymbolTable
70
2
0
APPID
5
12
100
AcDbSymbolTableRecord
100
AcDbRegAppTableRecord
2
ACAD
70
0
0
ENDTAB
0
TABLE
2
DIMSTYLE
5
A
100
AcDbSymbolTable
70
1
0
ENDTAB
0
TABLE
2
BLOCK_RECORD
5
1
100
AcDbSymbolTable
70
1
0
BLOCK_RECORD
5
1F
100
AcDbSymbolTableRecord
100
AcDbBlockTableRecord
2
*MODEL_SPACE
0
BLOCK_RECORD
5
1B
100
AcDbSymbolTableRecord
100
AcDbBlockTableRecord
2
*PAPER_SPACE
0
ENDTAB
0
ENDSEC
0
SECTION
2
BLOCKS
0
BLOCK
5
20
100
AcDbEntity
100
AcDbBlockBegin
2
*MODEL_SPACE
0
ENDBLK
5
21
100
AcDbEntity
100
AcDbBlockEnd
0
BLOCK
5
1C
100
AcDbEntity
100
AcDbBlockBegin
2
*PAPER_SPACE
0
ENDBLK
5
1D
100
AcDbEntity
100
AcDbBlockEnd
0
ENDSEC
0
SECTION
2
ENTITIES
0
LWPOLYLINE
5
100
100
AcDbEntity
8
0
100
AcDbPolyline
90
8
70
1
43
0.0
10
500
20
175
10
446.96699141100896
20
121.96699141100893
10
446.96699141100896
20
46.966991411008927
10
500
20
-6.0660171779821503
10
575
20
-6.0660171779821503
10
628.03300858899104
20
46.966991411008919
10
628.03300858899104
20
121.96699141100893
10
575
20
175
0
CIRCLE
5
101
100
AcDbEntity
8
0
100
AcDbCircle
10
537.41396848856357
20
34.233620778422313
30
0
40
11.855346939215215
210
0
220
0
230
1
0
LWPOLYLINE
5
102
100
AcDbEntity
8
0
100
AcDbPolyline
90
6
70
1
43
0.0
10
675
20
125
10
750
20
125
10
750
20
50
10
728.50781059358212
20
50
42
0.99999999999999989
10
696.49218940641788
20
50
10
675
20
50
0
LWPOLYLINE
5
103
100
AcDbEntity
8
0
100
AcDbPolyline
90
4
70
1
43
0.0
10
765.48386943430114
20
123.24704318699017
10
840.48386943430114
20
123.24704318699017
10
840.48386943430114
20
48.247043186990162
10
765.48386943430114
20
48.247043186990162
0
LWPOLYLINE
5
104
100
AcDbEntity
8
0
100
AcDbPolyline
90
4
70
1
43
0.0
10
674.78414218514104
20
215.59680568599765
10
749.78414218514104
20
215.59680568599765
10
749.78414218514104
20
140.59680568599765
10
674.78414218514104
20
140.59680568599765
0
LWPOLYLINE
5
105
100
AcDbEntity
8
0
100
AcDbPolyline
90
4
70
1
43
0.0
10
769.86651386977144
20
214.42294924544669
10
844.86651386977144
20
214.42294924544669
10
844.86651386977144
20
139.42294924544669
10
769.86651386977144
20
139.42294924544669
0
LWPOLYLINE
5
106
100
AcDbEntity
8
0
100
AcDbPolyline
90
4
70
1
43
0.0
10
496.74924870157361
20
273.89834223336373
10
571.74924870157361
20
273.89834223336373
10
571.74924870157361
20
198.89834223336376
10
496.74924870157361
20
198.89834223336376
0
LWPOLYLINE
5
107
100
AcDbEntity
8
0
100
AcDbPolyline
90
4
70
1
43
0.0
10
850
20
120
10
925
20
120
10
925
20
45
10
850
20
45
0
LWPOLYLINE
5
108
100
AcDbEntity
8
0
100
AcDbPolyline
90
4
70
1
43
0.0
10
860
20
210
10
935
20
210
10
935
20
135
10
860
20
135
0
LWPOLYLINE
5
109
100
AcDbEntity
8
0
100
AcDbPolyline
90
4
70
1
43
0.0
10
610
20
310
10
685
20
310
10
685
20
235
10
610
20
235
0
LINE
5
110
100
AcDbEntity
8
0
100
AcDbLine
10
760
20
300
30
0
11
835
21
300
31
0
0
LINE
5
111
100
AcDbEntity
8
0
100
AcDbLine
10
835
20
300
30
0
11
888.03300858899104
21
353.03300858899104
31
0
0
LINE
5
112
100
AcDbEntity
8
0
100
AcDbLine
10
888.03300858899104
20
353.03300858899104
30
0
11
888.03300858899115
21
428.03300858899104
31
0
0
LINE
5
113
100
AcDbEntity
8
0
100
AcDbLine
10
706.96699141100885
20
428.03300858899121
30
0
11
706.96699141100885
21
353.03300858899104
31
0
0
LINE
5
114
100
AcDbEntity
8
0
100
AcDbLine
10
706.96699141100885
20
353.03300858899104
30
0
11
760
21
300
31
0
0
LINE
5
115
100
AcDbEntity
8
0
100
AcDbLine
10
760
20
300
30
0
11
760.00009999999997
21
300.00000000000006
31
0
0
SPLINE
5
116
100
AcDbEntity
8
0
100
AcDbSpline
70
4
71
5
72
16
73
10
74
0
42
0.000000001
43
0.0000000001
44
0.0000000001
40
0
40
0
40
0
40
0
40
0
40
0
40
0.20000000000000001
40
0.40000000000000002
40
0.60000000000000009
40
0.80000000000000004
40
1
40
1
40
1
40
1
40
1
40
1
41
1
41
1
41
1
41
1
41
1
41
1
41
1
41
1
41
1
41
1
10
706.96699141100885
20
428.03300858899121
30
0
10
714.20963209804086
20
428.03300858898388
30
0
10
728.69491347212875
20
428.03300858897074
30
0
10
750.4228355333363
20
428.03300858895705
30
0
10
779.39339828174468
20
428.03300858895091
30
0
10
815.60660171740653
20
428.03300858895938
30
0
10
844.57716446601012
20
428.03300858897148
30
0
10
866.30508652749154
20
428.03300858898172
30
0
10
880.79036790182283
20
428.03300858898797
30
0
10
888.03300858899115
20
428.03300858899104
30
0
0
LWPOLYLINE
5
117
100
AcDbEntity
8
0
100
AcDbPolyline
90
6
70
1
43
0.0
10
513.08518252084866
20
345.58492691514283
10
588.08518252084866
20
345.58492691514283
10
641.1181911098397
20
398.61793550413387
10
641.1181911098397
20
473.61793550413381
10
460.05217393185768
20
473.61793550413381
10
460.05217393185768
20
398.61793550413387
0
ENDSEC
0
SECTION
2
OBJECTS
0
DICTIONARY
5
C
100
AcDbDictionary
3
ACAD_GROUP
350
D
3
ACAD_MLINESTYLE
350
17
0
DICTIONARY
5
D
100
AcDbDictionary
0
DICTIONARY
5
1A
330
C
100
AcDbDictionary
0
DICTIONARY
5
17
100
AcDbDictionary
0
ENDSEC
0
EOF
